<?xml version="1.0" encoding="UTF-8" standalone="no"?><!DOCTYPE svg PUBLIC "-//W3C//DTD SVG 1.1//EN" "http://www.w3.org/Graphics/SVG/1.1/DTD/svg11.dtd"><svg width="100%" height="100%" viewBox="0 0 454 119" version="1.1" xmlns="http://www.w3.org/2000/svg" xmlns:xlink="http://www.w3.org/1999/xlink" xml:space="preserve" xmlns:serif="http://www.serif.com/" style="fill-rule:evenodd;clip-rule:evenodd;stroke-linecap:round;stroke-linejoin:round;stroke-miterlimit:1.5;"><g transform="matrix(0.24,0,0,0.24,-71.04,-329.28)"><g><g transform="matrix(2.62844,0,0,2.68511,-2023.07,-1291.02)"><path d="M1232,1006L1242,996" style="fill:none;stroke:rgb(131,208,14);stroke-width:6.25px;"/></g><g transform="matrix(2.62844,0,0,2.68511,-2038.92,-1283.28)"><path d="M1281,1076L1238,1033L1232,1039L1242,1074L1264,1096L1274,1094" style="fill:none;stroke:rgb(131,208,14);stroke-width:6.25px;"/></g><g transform="matrix(2.62844,0,0,2.68511,-2031.92,-1283.28)"><path d="M1323,1109L1392.01,1109" style="fill:none;stroke:rgb(131,208,14);stroke-width:6.25px;"/></g><g transform="matrix(3.4121,0,0,3.48567,-1805.08,-1720.75)"><circle cx="1025" cy="972" r="13" style="fill:none;stroke:rgb(131,208,14);stroke-width:4.81px;"/></g><g transform="matrix(2.62844,0,0,2.68511,-2031.92,-1293.97)"><path d="M1221,996L1301,1076L1405,1076" style="fill:none;stroke:rgb(131,208,14);stroke-width:6.25px;"/></g><g transform="matrix(2.62844,0,0,2.68511,-2031.92,-1293.97)"><path d="M1323,1064.02L1323,1050C1323.3,1042.31 1329.72,1040.69 1335,1041L1382,1044.76C1391.24,1045.53 1392.13,1052.07 1392,1054L1392,1064" style="fill:none;stroke:rgb(131,208,14);stroke-width:6.25px;"/></g><g transform="matrix(0.466518,0,0,0.262552,1696.14,1612.98)"><path d="M0,393.969L145.341,416.443L293.633,393.969C293.633,393.969 271.499,255.268 393.969,197.722C393.969,197.722 296.584,208.051 274.45,295.845C274.45,295.845 320.192,67.875 261.171,0C261.171,0 287.73,162.309 246.415,281.828C246.415,281.828 264.122,191.82 240.513,150.505C240.513,150.505 243.464,255.268 209.526,324.618C209.526,324.618 255.269,101.812 150.505,0C150.505,0 225.758,187.393 178.54,337.898C178.54,337.898 157.883,261.17 177.064,187.393C177.064,187.393 147.554,239.037 141.652,298.059C141.652,298.059 135.75,180.016 81.155,94.434C81.155,94.434 126.896,246.415 115.092,329.045C115.092,329.045 91.95,276.56 91.483,203.624C91.483,203.624 78.204,259.695 87.057,315.765C87.057,315.765 82.63,147.554 -25.084,76.728C-25.084,76.728 66.399,174.114 63.448,337.898C63.448,337.898 17.707,190.344 79.68,38.364C79.68,38.364 1.476,143.127 26.56,331.996C26.56,331.996 -4.427,224.282 -103.287,178.54C-103.287,178.54 -4.427,261.17 0,393.969" style="fill:rgb(56,154,20);fill-rule:nonzero;"/></g><g transform="matrix(0.417279,0,0,0.234841,1934.31,1624.52)"><path d="M0,393.969L145.341,416.443L293.633,393.969C293.633,393.969 271.499,255.268 393.969,197.722C393.969,197.722 296.584,208.051 274.45,295.845C274.45,295.845 320.192,67.875 261.171,0C261.171,0 287.73,162.309 246.415,281.828C246.415,281.828 264.122,191.82 240.513,150.505C240.513,150.505 243.464,255.268 209.526,324.618C209.526,324.618 255.269,101.812 150.505,0C150.505,0 225.758,187.393 178.54,337.898C178.54,337.898 157.883,261.17 177.064,187.393C177.064,187.393 147.554,239.037 141.652,298.059C141.652,298.059 135.75,180.016 81.155,94.434C81.155,94.434 126.896,246.415 115.092,329.045C115.092,329.045 91.95,276.56 91.483,203.624C91.483,203.624 78.204,259.695 87.057,315.765C87.057,315.765 82.63,147.554 -25.084,76.728C-25.084,76.728 66.399,174.114 63.448,337.898C63.448,337.898 17.707,190.344 79.68,38.364C79.68,38.364 1.476,143.127 26.56,331.996C26.56,331.996 -4.427,224.282 -103.287,178.54C-103.287,178.54 -4.427,261.17 0,393.969" style="fill:rgb(56,154,20);fill-rule:nonzero;"/></g><g transform="matrix(0.342338,0,0,0.192665,2048.95,1642.08)"><path d="M0,393.969L145.341,416.443L293.633,393.969C293.633,393.969 271.499,255.268 393.969,197.722C393.969,197.722 296.584,208.051 274.45,295.845C274.45,295.845 320.192,67.875 261.171,0C261.171,0 287.73,162.309 246.415,281.828C246.415,281.828 264.122,191.82 240.513,150.505C240.513,150.505 243.464,255.268 209.526,324.618C209.526,324.618 255.269,101.812 150.505,0C150.505,0 225.758,187.393 178.54,337.898C178.54,337.898 157.883,261.17 177.064,187.393C177.064,187.393 147.554,239.037 141.652,298.059C141.652,298.059 135.75,180.016 81.155,94.434C81.155,94.434 126.896,246.415 115.092,329.045C115.092,329.045 91.95,276.56 91.483,203.624C91.483,203.624 78.204,259.695 87.057,315.765C87.057,315.765 82.63,147.554 -25.084,76.728C-25.084,76.728 66.399,174.114 63.448,337.898C63.448,337.898 17.707,190.344 79.68,38.364C79.68,38.364 1.476,143.127 26.56,331.996C26.56,331.996 -4.427,224.282 -103.287,178.54C-103.287,178.54 -4.427,261.17 0,393.969" style="fill:rgb(56,154,20);fill-rule:nonzero;"/></g><g transform="matrix(0.466518,0,0,0.262552,1829.8,1612.98)"><path d="M0,393.969L145.341,416.443L293.633,393.969C293.633,393.969 271.499,255.268 393.969,197.722C393.969,197.722 296.584,208.051 274.45,295.845C274.45,295.845 320.192,67.875 261.171,0C261.171,0 287.73,162.309 246.415,281.828C246.415,281.828 264.122,191.82 240.513,150.505C240.513,150.505 243.464,255.268 209.526,324.618C209.526,324.618 255.269,101.812 150.505,0C150.505,0 225.758,187.393 178.54,337.898C178.54,337.898 157.883,261.17 177.064,187.393C177.064,187.393 147.554,239.037 141.652,298.059C141.652,298.059 135.75,180.016 81.155,94.434C81.155,94.434 126.896,246.415 115.092,329.045C115.092,329.045 91.95,276.56 91.483,203.624C91.483,203.624 78.204,259.695 87.057,315.765C87.057,315.765 82.63,147.554 -25.084,76.728C-25.084,76.728 66.399,174.114 63.448,337.898C63.448,337.898 17.707,190.344 79.68,38.364C79.68,38.364 1.476,143.127 26.56,331.996C26.56,331.996 -4.427,224.282 -103.287,178.54C-103.287,178.54 -4.427,261.17 0,393.969" style="fill:rgb(56,154,20);fill-rule:nonzero;"/></g><g transform="matrix(4.3072,0,0,4.3072,-3610.93,-199.304)"><path d="M925.133,438.24C919.583,438.24 915.733,434.09 915.733,428.44C915.733,422.79 919.583,418.64 925.133,418.64C929.633,418.64 932.633,421.29 933.533,425.54L942.233,425.54C941.133,416.74 934.433,410.74 925.183,410.74C914.933,410.74 907.183,418.19 907.183,428.44C907.183,438.69 914.933,446.14 925.183,446.14C934.433,446.14 941.133,440.14 942.233,431.34L933.533,431.34C932.633,435.59 929.633,438.24 925.133,438.24Z" style="fill:rgb(56,154,20);fill-rule:nonzero;"/><path d="M976.733,411.44L967.383,411.44L959.033,426.24L950.733,411.44L941.383,411.44L954.833,435.19L954.833,445.44L963.333,445.44L963.333,435.19L976.733,411.44Z" style="fill:rgb(56,154,20);fill-rule:nonzero;"/><path d="M1011.38,426.34L993.183,426.34L993.183,432.99L1002.93,433.09C1001.23,436.34 998.233,438.29 994.283,438.29C988.283,438.29 984.433,433.94 984.433,428.59C984.433,422.59 988.383,418.49 994.233,418.49C997.283,418.49 1000.68,419.59 1002.13,423.54L1011.03,423.54C1009.58,415.44 1002.38,410.74 994.033,410.74C983.683,410.74 975.883,418.19 975.883,428.79C975.883,438.54 983.333,446.14 993.983,446.14C998.733,446.14 1002.28,444.34 1004.73,441.34L1005.08,445.44L1011.38,445.44L1011.38,426.34Z" style="fill:rgb(56,154,20);fill-rule:nonzero;"/><path d="M1049.33,411.44L1040.93,411.44L1040.93,430.59L1024.53,411.44L1018.08,411.44L1018.08,445.44L1026.53,445.44L1026.53,426.79L1042.83,445.44L1049.33,445.44L1049.33,411.44Z" style="fill:rgb(56,154,20);fill-rule:nonzero;"/><path d="M1063.78,418.79L1081.03,418.79L1081.03,411.44L1055.33,411.44L1055.33,445.44L1081.03,445.44L1081.03,438.09L1063.78,438.09L1063.78,432.19L1078.88,432.19L1078.88,424.99L1063.78,424.99L1063.78,418.79Z" style="fill:rgb(56,154,20);fill-rule:nonzero;"/><path d="M1113.13,418.99L1113.13,411.44L1083.03,411.44L1083.03,418.99L1093.88,418.99L1093.88,445.44L1102.28,445.44L1102.28,418.99L1113.13,418.99Z" style="fill:rgb(56,154,20);fill-rule:nonzero;"/></g><g transform="matrix(3.19623,0,0,3.19623,-1987.61,438.508)"><path d="M740.158,441.14L721.708,441.14L721.708,411.44L716.958,411.44L716.958,445.44L740.158,445.44L740.158,441.14Z" style="fill:rgb(131,208,14);fill-rule:nonzero;"/><path d="M768.758,436.69L772.558,445.44L777.658,445.44L762.508,411.24L758.008,411.24L742.858,445.44L747.958,445.44L751.758,436.69L768.758,436.69ZM766.858,432.29L753.658,432.29L760.258,416.99L766.858,432.29Z" style="fill:rgb(131,208,14);fill-rule:nonzero;"/><path d="M825.308,411.44L820.308,411.44L811.508,438.29L802.458,411.44L798.358,411.44L789.258,438.29L780.508,411.44L775.458,411.44L786.958,445.64L791.608,445.64L800.408,419.94L809.158,445.64L813.858,445.64L825.308,411.44Z" style="fill:rgb(131,208,14);fill-rule:nonzero;"/><path d="M860.908,411.44L856.108,411.44L856.108,437.04L835.208,411.44L831.458,411.44L831.458,445.44L836.208,445.44L836.208,420.24L857.008,445.44L860.908,445.44L860.908,411.44Z" style="fill:rgb(131,208,14);fill-rule:nonzero;"/><path d="M907.558,445.44L913.658,445.44L906.308,438.69L906.608,438.24L913.058,428.49L908.258,428.49L903.258,435.89L897.258,430.39C891.958,425.64 889.208,423.29 889.208,419.99C889.208,416.89 891.458,414.79 894.558,414.79C897.508,414.79 899.658,416.64 900.108,420.09L904.708,420.09C904.058,414.29 900.258,410.69 894.608,410.69C888.808,410.69 884.458,414.49 884.458,419.89C884.458,422.29 885.358,424.29 887.308,426.59C883.408,428.29 880.758,431.59 880.758,435.89C880.758,441.94 885.658,446.14 893.008,446.14C897.208,446.14 900.708,444.64 903.608,441.84L907.558,445.44ZM893.058,442.04C888.508,442.04 885.258,439.29 885.258,435.84C885.258,432.99 887.208,430.79 890.158,429.54C891.058,430.44 892.108,431.39 893.258,432.44L900.558,439.09C898.408,440.99 895.808,442.04 893.058,442.04Z" style="fill:rgb(131,208,14);fill-rule:nonzero;"/><path d="M966.358,411.44L962.808,411.44L949.408,433.49L936.008,411.44L932.508,411.44L932.508,445.44L937.308,445.44L937.208,421.84L947.908,439.39L950.958,439.39L961.558,421.99L961.558,445.44L966.358,445.44L966.358,411.44Z" style="fill:rgb(131,208,14);fill-rule:nonzero;"/><path d="M997.858,436.69L1001.66,445.44L1006.76,445.44L991.608,411.24L987.108,411.24L971.958,445.44L977.058,445.44L980.858,436.69L997.858,436.69ZM995.958,432.29L982.758,432.29L989.358,416.99L995.958,432.29Z" style="fill:rgb(131,208,14);fill-rule:nonzero;"/><rect x="1012.36" y="411.44" width="4.75" height="34" style="fill:rgb(131,208,14);fill-rule:nonzero;"/><path d="M1055.16,411.44L1050.36,411.44L1050.36,437.04L1029.46,411.44L1025.71,411.44L1025.71,445.44L1030.46,445.44L1030.46,420.24L1051.26,445.44L1055.16,445.44L1055.16,411.44Z" style="fill:rgb(131,208,14);fill-rule:nonzero;"/><path d="M1089.61,415.84L1089.61,411.44L1060.36,411.44L1060.36,415.84L1072.61,415.84L1072.61,445.44L1077.36,445.44L1077.36,415.84L1089.61,415.84Z" style="fill:rgb(131,208,14);fill-rule:nonzero;"/><path d="M1099.56,415.84L1118.96,415.84L1118.96,411.44L1094.81,411.44L1094.81,445.44L1118.96,445.44L1118.96,441.04L1099.56,441.04L1099.56,430.79L1116.96,430.79L1116.96,426.39L1099.56,426.39L1099.56,415.84Z" style="fill:rgb(131,208,14);fill-rule:nonzero;"/><path d="M1155.51,411.44L1150.71,411.44L1150.71,437.04L1129.81,411.44L1126.06,411.44L1126.06,445.44L1130.81,445.44L1130.81,420.24L1151.61,445.44L1155.51,445.44L1155.51,411.44Z" style="fill:rgb(131,208,14);fill-rule:nonzero;"/><path d="M1187.01,436.69L1190.81,445.44L1195.91,445.44L1180.76,411.24L1176.26,411.24L1161.11,445.44L1166.21,445.44L1170.01,436.69L1187.01,436.69ZM1185.11,432.29L1171.91,432.29L1178.51,416.99L1185.11,432.29Z" style="fill:rgb(131,208,14);fill-rule:nonzero;"/><path d="M1230.96,411.44L1226.16,411.44L1226.16,437.04L1205.26,411.44L1201.51,411.44L1201.51,445.44L1206.26,445.44L1206.26,420.24L1227.06,445.44L1230.96,445.44L1230.96,411.44Z" style="fill:rgb(131,208,14);fill-rule:nonzero;"/><path d="M1256.01,441.54C1248.71,441.54 1243.11,436.04 1243.11,428.44C1243.11,420.84 1248.71,415.34 1256.01,415.34C1261.86,415.34 1266.01,418.64 1267.41,423.99L1272.31,423.99C1270.71,416.09 1264.41,410.74 1256.01,410.74C1246.21,410.74 1238.31,418.34 1238.31,428.44C1238.31,438.54 1246.21,446.14 1256.01,446.14C1264.41,446.14 1270.71,440.79 1272.31,432.89L1267.41,432.89C1266.01,438.24 1261.86,441.54 1256.01,441.54Z" style="fill:rgb(131,208,14);fill-rule:nonzero;"/><path d="M1284.41,415.84L1303.81,415.84L1303.81,411.44L1279.66,411.44L1279.66,445.44L1303.81,445.44L1303.81,441.04L1284.41,441.04L1284.41,430.79L1301.81,430.79L1301.81,426.39L1284.41,426.39L1284.41,415.84Z" style="fill:rgb(131,208,14);fill-rule:nonzero;"/></g><g transform="matrix(3.4121,0,0,3.48567,-2117.93,-1720.75)"><circle cx="1025" cy="972" r="13" style="fill:none;stroke:rgb(131,208,14);stroke-width:4.81px;stroke-linecap:square;stroke-linejoin:miter;"/></g><g transform="matrix(2.95026,0,0,2.95026,-2942.51,-6632.82)"><path d="M1100.4,2832C1104.78,2832 1736.18,2832 1736.18,2832" style="fill:none;stroke:rgb(56,154,20);stroke-width:3.96px;"/></g></g></g></svg>